<svg width="16" height="22" viewBox="0 0 16 22" fill="none" xmlns="http://www.w3.org/2000/svg">
<path d="M0.46967 12.9697C0.735936 12.7034 1.1526 12.6792 1.44621 12.8971L1.53033 12.9697L8 19.439L14.4697 12.9697C14.7359 12.7034 15.1526 12.6792 15.4462 12.8971L15.5303 12.9697C15.7966 13.2359 15.8208 13.6526 15.6029 13.9462L15.5303 14.0303L8.53033 21.0303C8.26406 21.2966 7.8474 21.3208 7.55379 21.1029L7.46967 21.0303L0.46967 14.0303C0.176777 13.7374 0.176777 13.2626 0.46967 12.9697Z" fill="black"/>
<path d="M15.2803 8.28033C15.0141 8.5466 14.5974 8.5708 14.3038 8.35295L14.2197 8.28033L7.75 1.811L1.28033 8.28033C1.01406 8.5466 0.5974 8.5708 0.303788 8.35295L0.21967 8.28033C-0.0465963 8.01406 -0.0708026 7.5974 0.147052 7.30379L0.21967 7.21967L7.21967 0.21967C7.48594 -0.0465963 7.9026 -0.0708026 8.19621 0.147052L8.28033 0.21967L15.2803 7.21967C15.5732 7.51256 15.5732 7.98744 15.2803 8.28033Z" fill="black"/>
</svg>
