<svg width="58" height="58" viewBox="0 0 58 58" fill="none" xmlns="http://www.w3.org/2000/svg">
<g clip-path="url(#clip0_1204_2)">
<path fill-rule="evenodd" clip-rule="evenodd" d="M32.8509 31.6681V37.798C32.8509 38.9577 34.5263 39.2379 34.8326 37.854C35.263 35.9122 34.3415 31.9458 35.3165 30.3939C35.8539 29.5387 36.7123 29.0587 38.0618 29.0587H52.7876C54.8568 29.0587 56.0726 30.2769 56.0726 32.3503V37.3448C56.0726 41.5305 52.0289 40.6363 49.162 40.6363C48.4642 40.6363 40.7511 40.5437 40.2818 40.707C39.2411 41.0676 39.5037 42.6804 40.666 42.6804H50.1809V53.5758C50.1809 55.0718 48.7389 56.1852 47.0101 56.1852H5.21091C3.44314 56.1852 2.32947 55.3032 2.02309 53.817C1.78479 52.6646 1.92583 38.9674 1.92583 37.1158C1.92583 29.624 1.92583 22.1346 1.92583 14.6428C2.27354 14.7354 2.57506 14.9961 2.99087 15.1642C4.47414 15.7635 5.84313 15.5491 7.47716 15.5491H46.2198C47.5645 15.5491 48.0775 15.4639 48.9383 16.0047C49.4684 16.3385 50.1857 17.1717 50.1857 18.0464V27.1267H37.2715C35.6594 27.1267 33.9573 28.4375 33.3056 29.8481C33.1135 30.2647 32.8533 31.059 32.8533 31.6656L32.8509 31.6681ZM0 10.3304V53.6879C0 55.9342 2.44862 58.0003 3.73737 58.0003H48.2575C50.1177 58.0003 52.2234 55.7296 52.2234 53.3468V42.678C53.9426 42.678 55.2654 42.5318 56.4447 41.3453C57.1863 40.5998 58.0009 39.5595 58.0009 38.1366V31.7802C58.0009 29.2829 55.7395 27.1267 53.5827 27.1267H52.2234V18.1609C52.2234 16.7697 51.4088 15.5491 50.6696 14.8377C49.4636 13.678 48.2575 13.5075 46.4459 13.5075V8.05975C46.4459 6.8367 45.4028 5.78906 44.1797 5.78906C43.5256 5.78906 42.48 5.79881 42.48 6.69782C42.48 7.8819 43.6302 7.83317 44.4058 7.83317V13.5075H4.64435C4.03888 13.5075 3.52095 13.2516 3.0857 12.913C3.0395 12.8764 2.95196 12.8058 2.89846 12.7595C2.69178 12.5768 2.8547 12.74 2.67233 12.5329C1.53677 11.266 1.87963 9.28768 2.98843 8.44226C3.74952 7.86241 4.15803 7.8283 5.43948 7.83317H14.3902C15.64 7.84048 16.4279 7.82099 16.4279 6.69782C16.4279 6.14964 16.0704 5.78906 15.5209 5.78906H4.75864C2.2857 5.78906 0 7.9355 0 10.328L0 10.3304Z" fill="#797979"/>
<path fill-rule="evenodd" clip-rule="evenodd" d="M14.6133 10.6688C14.6133 11.2389 15.1069 11.6897 15.6321 11.6897C15.9555 11.6897 18.7008 10.0037 19.2187 9.72108C22.6935 7.82072 26.5208 5.41359 29.9834 3.48156C32.5366 2.05872 34.2582 0.723599 36.1718 3.93472C36.3809 4.28556 36.5147 4.5365 36.7092 4.87272L39.8265 10.2619C40.1524 10.8126 40.449 11.6897 41.2344 11.6897C41.9347 11.6897 42.5402 10.8857 41.8253 9.7357C41.6551 9.46282 41.5846 9.30202 41.4144 9.0121C41.0958 8.47123 40.8478 8.03512 40.5341 7.5113C39.8168 6.31261 37.6697 2.29018 36.9621 1.55683C35.7512 0.299672 34.8272 0 33.0788 0C31.5688 0 29.3828 1.53734 28.1014 2.27556C27.3451 2.71167 26.5792 3.14534 25.8084 3.61069C22.5816 5.56708 18.7592 7.63799 15.4522 9.57977C15.0412 9.82097 14.6133 10.0768 14.6133 10.6688V10.6688Z" fill="#EBA707"/>
<path fill-rule="evenodd" clip-rule="evenodd" d="M22.3164 10.6694C22.3164 10.8181 22.5012 11.203 22.5887 11.3053C23.2769 12.124 24.0769 11.3736 24.7018 11.0154L28.7334 8.69843C28.7553 8.68625 28.7845 8.66676 28.8039 8.65457C29.0057 8.52545 28.8842 8.61316 29.0009 8.51083C30.9632 9.82646 32.8671 10.2138 35.3449 10.2138L35.9771 11.281C36.7042 12.1434 37.723 11.4564 37.723 10.667C37.723 10.2455 37.047 9.1857 36.7577 8.68381C36.4245 8.10639 36.675 8.16974 35.571 8.16974C34.6106 8.16974 35.4957 8.29887 33.7668 8.16243C32.7504 8.08203 31.3619 7.59963 30.5206 7.10261C30.3018 6.97349 30.0781 6.84436 29.8908 6.7128C28.8744 6.00138 29.4702 6.02331 27.3401 7.18789L22.883 9.76068C22.6033 9.9361 22.3164 10.2285 22.3164 10.6694V10.6694Z" fill="#EBA707"/>
<path fill-rule="evenodd" clip-rule="evenodd" d="M5.77705 22.2455C5.77705 24.0972 5.38313 26.2192 6.79589 26.2192C8.15029 26.2192 7.81473 23.6294 7.81473 22.36C9.1132 22.36 14.4165 22.5574 15.0658 22.1359C15.8682 21.6145 15.4961 20.3184 14.4968 20.3184H7.70045C6.66458 20.3184 5.77462 21.2101 5.77462 22.248L5.77705 22.2455Z" fill="#EBA707"/>
<path fill-rule="evenodd" clip-rule="evenodd" d="M40.6698 35.7536C39.2035 35.7536 39.488 33.9385 40.5555 33.9385C41.8029 33.9385 41.8466 35.7536 40.6698 35.7536ZM37.7251 34.5062V35.1884C37.7251 37.4201 40.874 38.7601 42.6734 36.9669C42.8023 36.8378 43.1573 36.3481 43.2424 36.1751C43.9257 34.801 43.3105 32.8154 41.7591 32.1649C39.5512 31.239 37.7227 33.1394 37.7227 34.5062H37.7251Z" fill="#EBA707"/>
<path fill-rule="evenodd" clip-rule="evenodd" d="M5.77747 46.5369C5.77747 51.1685 5.90391 50.3961 14.4996 50.3961C15.7616 50.3961 16.0315 48.352 14.1592 48.352H7.81514C7.81514 46.8025 8.06803 45.5137 6.57017 45.5137C6.1568 45.5137 5.77747 46.0667 5.77747 46.5345V46.5369Z" fill="#EBA707"/>
<path fill-rule="evenodd" clip-rule="evenodd" d="M37.7227 21.2247C37.7227 21.941 37.961 22.36 39.1962 22.36H45.426C45.426 23.8779 45.0904 25.1984 46.4448 25.1984C47.663 25.1984 47.3518 23.7195 47.3518 22.1334C47.3518 21.0809 46.4715 20.3184 45.426 20.3184H38.6296C38.0825 20.3184 37.7227 20.6765 37.7227 21.2271V21.2247Z" fill="#EBA707"/>
<path fill-rule="evenodd" clip-rule="evenodd" d="M45.4237 46.423V48.3526H40.8936C39.0505 48.3526 39.5149 50.3967 40.4414 50.3967H45.4261C47.7435 50.3967 47.352 47.9384 47.352 46.423C47.352 45.1975 45.4261 45.1975 45.4261 46.423H45.4237Z" fill="#EBA707"/>
<path fill-rule="evenodd" clip-rule="evenodd" d="M18.3516 49.3732C18.3516 50.7814 20.3819 50.394 22.2032 50.394C23.5382 50.394 23.5917 48.3499 22.0889 48.3499C20.3965 48.3499 18.3516 47.9942 18.3516 49.3707V49.3732Z" fill="#EBA707"/>
<path fill-rule="evenodd" clip-rule="evenodd" d="M25.1484 21.2249C25.1484 21.9412 25.3867 22.3602 26.622 22.3602C27.3952 22.3602 29.0439 22.4796 29.5691 22.1361C30.3934 21.5952 29.9727 20.3186 29.0001 20.3186C26.9357 20.3186 25.1484 19.9361 25.1484 21.2273V21.2249Z" fill="#EBA707"/>
<path fill-rule="evenodd" clip-rule="evenodd" d="M26.0547 49.372C26.0547 50.7803 28.0851 50.3929 29.9063 50.3929C31.2729 50.3929 31.3726 48.3488 29.6802 48.3488C28.4182 48.3488 26.0547 47.9979 26.0547 49.3696V49.372Z" fill="#EBA707"/>
<path fill-rule="evenodd" clip-rule="evenodd" d="M18.6925 22.3605H20.9588C22.7265 22.3605 22.5247 20.3164 21.2992 20.3164H18.3545C17.0463 20.3164 16.9418 22.3605 18.6949 22.3605H18.6925Z" fill="#EBA707"/>
<path fill-rule="evenodd" clip-rule="evenodd" d="M33.1925 22.3604C34.153 22.3604 35.7992 22.5675 35.7992 21.3396C35.7992 20.0166 34.1189 20.3188 32.8545 20.3188C31.5463 20.3188 31.4418 22.3629 33.1949 22.3629L33.1925 22.3604Z" fill="#EBA707"/>
<path fill-rule="evenodd" clip-rule="evenodd" d="M5.77768 29.0566C5.77768 30.058 5.50291 32.0071 6.68467 32.0071C8.4111 32.0071 7.77159 28.7594 7.59166 28.4865C7.05184 27.6606 5.77768 28.0821 5.77768 29.0566Z" fill="#EBA707"/>
<path fill-rule="evenodd" clip-rule="evenodd" d="M32.8516 49.3737C32.8516 50.6967 34.5318 50.3946 35.7962 50.3946C37.0218 50.3946 37.2236 48.3505 35.4558 48.3505C34.3835 48.3505 32.8516 48.1214 32.8516 49.3713V49.3737Z" fill="#EBA707"/>
<path fill-rule="evenodd" clip-rule="evenodd" d="M5.77772 40.6329C5.77772 41.6878 5.60507 42.8329 6.04276 43.3178C6.39291 43.7051 7.81539 43.9878 7.81539 42.1093C7.81539 40.7523 7.94184 39.7266 6.68227 39.7266C6.13516 39.7266 5.77528 40.0847 5.77528 40.6353L5.77772 40.6329Z" fill="#EBA707"/>
<path fill-rule="evenodd" clip-rule="evenodd" d="M5.7772 34.8457C5.7772 36.1126 5.47811 37.7961 6.79603 37.7961C7.98509 37.7961 7.81487 36.2637 7.81487 35.4134C7.81487 33.1841 5.77476 33.6933 5.77476 34.8457H5.7772Z" fill="#EBA707"/>
</g>
<defs>
<clipPath id="clip0_1204_2">
<rect width="58" height="58" fill="white"/>
</clipPath>
</defs>
</svg>
