
<svg viewBox="0 0 130 32" enable-background="new 0 0 130 32" xml:space="preserve">
	<path fill="#0087E6" d="M16.497,12.287h-0.01c0.276-0.002,0.55-0.058,0.805-0.164c0.258-0.107,0.492-0.265,0.689-0.463
		s0.354-0.433,0.46-0.691c0.106-0.259,0.161-0.536,0.16-0.815v-7.83c0.028-0.294-0.006-0.591-0.1-0.872s-0.245-0.539-0.444-0.757
		s-0.442-0.394-0.712-0.513C17.075,0.062,16.783,0,16.487,0c-0.295,0-0.588,0.062-0.859,0.182c-0.271,0.119-0.513,0.294-0.712,0.513
		s-0.351,0.477-0.444,0.757c-0.094,0.281-0.128,0.578-0.1,0.872v7.83c0,0.28,0.054,0.557,0.16,0.815
		c0.106,0.258,0.263,0.493,0.46,0.691s0.432,0.355,0.69,0.463c0.255,0.106,0.528,0.162,0.805,0.164h-0.009H16.497z"/>
	<path fill="#0087E6" d="M11.534,15.911c-0.085,0.266-0.222,0.513-0.402,0.726c-0.181,0.213-0.401,0.389-0.65,0.516
		c-0.249,0.128-0.52,0.205-0.798,0.228s-0.559-0.011-0.824-0.097l-7.407-2.421c-0.532-0.179-0.972-0.561-1.224-1.062
		c-0.253-0.501-0.298-1.082-0.125-1.616c0.173-0.534,0.549-0.979,1.047-1.237s1.078-0.311,1.614-0.146l7.407,2.42
		c0.537,0.176,0.981,0.559,1.237,1.063C11.664,14.789,11.708,15.373,11.534,15.911z"/>
	<path fill="#0087E6" d="M21.861,16.638c-0.181-0.213-0.317-0.46-0.402-0.727c-0.174-0.538-0.128-1.122,0.127-1.625
		c0.255-0.503,0.7-0.886,1.236-1.063l7.411-2.42c0.536-0.166,1.116-0.113,1.614,0.146s0.874,0.703,1.046,1.237
		c0.173,0.534,0.128,1.115-0.125,1.616c-0.252,0.501-0.692,0.883-1.225,1.062l-7.406,2.421c-0.266,0.086-0.547,0.12-0.826,0.098
		c-0.279-0.021-0.551-0.099-0.8-0.227C22.264,17.027,22.042,16.852,21.861,16.638z"/>
	<path fill="#0087E6" d="M6.35,31.574C5.893,31.24,5.587,30.738,5.5,30.18c-0.088-0.56,0.049-1.131,0.38-1.59l4.578-6.312
		c0.164-0.226,0.37-0.417,0.607-0.563c0.238-0.146,0.502-0.243,0.777-0.287c0.276-0.043,0.557-0.032,0.828,0.033
		c0.271,0.065,0.527,0.184,0.752,0.348c0.457,0.334,0.762,0.836,0.85,1.396c0.088,0.559-0.048,1.13-0.38,1.589L9.32,31.1
		c-0.164,0.227-0.371,0.418-0.609,0.564c-0.238,0.146-0.502,0.243-0.778,0.287c-0.276,0.043-0.558,0.032-0.83-0.033
		S6.576,31.734,6.35,31.57V31.574z"/>
	<path fill="#0087E6" d="M27.493,30.18c-0.088,0.559-0.394,1.061-0.85,1.395v0.02c-0.226,0.164-0.481,0.282-0.752,0.348
		c-0.271,0.064-0.553,0.076-0.828,0.032s-0.54-0.142-0.777-0.287s-0.444-0.337-0.608-0.563L19.1,24.788
		c-0.165-0.226-0.284-0.481-0.35-0.754c-0.065-0.271-0.077-0.554-0.034-0.83c0.043-0.276,0.141-0.541,0.286-0.78
		c0.146-0.238,0.337-0.445,0.563-0.61c0.226-0.165,0.482-0.284,0.753-0.35c0.272-0.065,0.554-0.077,0.83-0.034
		c0.276,0.043,0.542,0.141,0.78,0.286c0.238,0.146,0.446,0.337,0.611,0.563l4.573,6.312C27.444,29.049,27.581,29.62,27.493,30.18z"/>
</svg>
