<svg viewBox="0 0 27 24" fill="none" xmlns="http://www.w3.org/2000/svg">
<path fill-rule="evenodd" clip-rule="evenodd" d="M25.6412 10.5C25.4614 11.7479 25.0353 12.9339 24.404 14.0245C24.4513 14.2946 24.4755 14.5675 24.4755 14.8416C24.4755 15.7937 24.2002 16.7048 23.6902 17.5327C23.4356 17.9459 23.3701 18.4301 23.3449 18.75C23.316 19.1166 23.3257 19.5178 23.3519 19.9031C23.3812 20.3355 23.4342 20.7894 23.4949 21.2176C23.0023 21.0737 22.4683 20.9291 21.9587 20.8139C21.5348 20.7181 21.1011 20.6365 20.7082 20.5958C20.3655 20.5603 19.8703 20.5329 19.4275 20.6763C18.4593 20.9899 17.3938 21.1648 16.271 21.1648C14.9357 21.1648 13.7093 20.9274 12.6343 20.5148C12.3757 20.5266 12.1153 20.5325 11.8531 20.5325C10.3326 20.5325 8.86919 20.3322 7.5 19.9619C9.49049 22.2684 12.7719 23.6941 16.271 23.6941C17.6379 23.6941 18.9499 23.4839 20.1589 23.0975C20.161 23.0976 20.1649 23.0975 20.1706 23.0974C20.2017 23.0968 20.2879 23.095 20.4488 23.1117C20.7021 23.1379 21.0276 23.1963 21.4032 23.2812C22.1509 23.4502 22.9911 23.6996 23.6459 23.9078C25.0345 24.3495 26.38 23.1354 26.1319 21.7235C26.0251 21.1159 25.9141 20.3742 25.8705 19.7318C25.8486 19.4087 25.8462 19.1436 25.8616 18.949C25.8679 18.8683 25.876 18.8178 25.8812 18.7909C26.5913 17.6123 27 16.2703 27 14.8416C27 13.231 26.5007 11.7603 25.6412 10.5Z" fill="#20BE00"/>
<path fill-rule="evenodd" clip-rule="evenodd" d="M5.32455 4.62137C3.63538 5.90948 2.69667 7.60041 2.69667 9.37228C2.69667 10.2558 2.92733 11.1068 3.36006 11.8981C3.52488 12.1995 3.57164 12.5104 3.58836 12.7208C3.60659 12.9503 3.5975 13.1862 3.57749 13.4068C3.53742 13.8484 3.44184 14.3487 3.32719 14.8415C3.19307 15.4179 3.02123 16.0327 2.84685 16.6099C3.50882 16.37 4.23234 16.1241 4.91824 15.9246C5.47259 15.7633 6.03241 15.6234 6.53066 15.5448C6.95987 15.4771 7.58271 15.4106 8.11894 15.5956C9.32236 16.0108 10.6686 16.2453 12.0952 16.2453C14.7859 16.2453 17.1755 15.4122 18.8658 14.1232C20.555 12.8351 21.4937 11.1442 21.4937 9.37228C21.4937 7.60041 20.555 5.90948 18.8658 4.62137C17.1755 3.33237 14.7859 2.49928 12.0952 2.49928C9.4045 2.49928 7.01488 3.33237 5.32455 4.62137ZM3.80212 2.63605C5.96693 0.985223 8.90314 0 12.0952 0C15.2873 0 18.2235 0.985223 20.3883 2.63605C22.5542 4.28775 24 6.65815 24 9.37228C24 12.0864 22.5542 14.4568 20.3883 16.1085C18.2235 17.7593 15.2873 18.7446 12.0952 18.7446C10.4122 18.7446 8.80455 18.471 7.34489 17.9731C7.34343 17.9772 7.22504 17.9656 6.92209 18.0134C6.57291 18.0685 6.12718 18.1763 5.62016 18.3238C4.61081 18.6175 3.47728 19.0329 2.61389 19.368C1.11811 19.9485 -0.405649 18.516 0.0983126 16.99C0.365419 16.1812 0.680441 15.1592 0.885755 14.2767C0.98918 13.8321 1.0563 13.4583 1.08141 13.1815C1.09013 13.0855 1.09238 13.0154 1.09188 12.9681C0.515083 11.8689 0.190399 10.6535 0.190399 9.37228C0.190399 6.65815 1.63615 4.28775 3.80212 2.63605ZM1.08775 12.8999C1.08788 12.8998 1.08848 12.9031 1.08922 12.9104C1.088 12.9037 1.08763 12.9001 1.08775 12.8999Z" fill="#20BE00"/>
</svg>
