<svg width="40" height="64" viewBox="0 0 40 64" fill="none" xmlns="http://www.w3.org/2000/svg">
<path fill-rule="evenodd" clip-rule="evenodd" d="M10 5.77715C7.63307 5.77715 5.71429 7.71704 5.71429 10.11V53.89C5.71429 56.283 7.63307 58.2229 10 58.2229H30C32.3669 58.2229 34.2857 56.283 34.2857 53.89V10.11C34.2857 7.71704 32.3669 5.77715 30 5.77715H29.7618L29.0659 7.46539C28.6222 8.54171 27.5819 9.2428 26.4286 9.2428H13.5714C12.4181 9.2428 11.3778 8.54171 10.9341 7.46539L10.2382 5.77715H10ZM0 10.11C0 4.52641 4.47715 0 10 0H30C35.5228 0 40 4.52641 40 10.11V53.89C40 59.4736 35.5228 64 30 64H10C4.47715 64 0 59.4736 0 53.89V10.11Z" fill="#20BE00"/>
</svg>
