<svg version="1.1"  viewBox="403.937 280.632 34.016 34.016">
<path d="M429.863,305.853c0.113-0.169,0.283-0.281,0.396-0.396c2.482-2.482,4.008-5.87,4.008-9.651c0-3.726-1.523-7.168-4.008-9.597
	c-2.428-2.482-5.869-4.007-9.597-4.007c-3.781,0-7.168,1.524-9.651,4.007c-2.427,2.428-3.951,5.871-3.951,9.597
	c0,3.781,1.524,7.168,3.951,9.651c2.482,2.429,5.87,3.951,9.651,3.951c2.823,0,5.419-0.847,7.62-2.313l5.023,5.982l1.523-1.298
	L429.863,305.853z M420.661,307.434c-3.217,0-6.096-1.298-8.24-3.388c-2.088-2.145-3.388-5.022-3.388-8.24
	c0-3.219,1.298-6.097,3.388-8.186c2.145-2.088,5.022-3.386,8.24-3.386c3.162,0,6.098,1.298,8.186,3.386
	c2.088,2.089,3.387,4.967,3.387,8.186c0,3.218-1.299,6.096-3.387,8.24C426.759,306.136,423.823,307.434,420.661,307.434z"/>
</svg>
