<svg width="17" height="18" viewBox="0 0 17 18" fill="none" xmlns="http://www.w3.org/2000/svg">
<path fill-rule="evenodd" clip-rule="evenodd" d="M15.8797 10.1412C16.4018 5.74595 15.6288 2.97114 14.2345 1.71609L14.2352 1.71536C11.9847 -0.427921 4.38442 -0.745147 1.69201 1.81162C0.48291 3.06229 0.0570252 4.89783 0.0103529 7.17019C-0.0363194 9.44327 -0.0917428 13.7014 3.87613 14.8565H3.87978L3.87613 16.6206C3.87613 16.6206 3.84915 17.3353 4.30566 17.4789C4.79737 17.6383 5.03556 17.3533 6.4179 15.6996L6.68814 15.3765C9.40388 15.612 11.4896 15.0724 11.7266 14.9936C11.7755 14.9772 11.8449 14.959 11.931 14.9364C12.8085 14.7058 15.4227 14.019 15.8797 10.1412ZM6.95577 14.1353C6.95577 14.1353 5.23692 16.2786 4.70238 16.835C4.52736 17.0159 4.33556 16.9991 4.33848 16.6403C4.33848 16.4047 4.35161 13.7116 4.35161 13.7116C1.10316 12.7807 1.17649 9.36774 1.21819 7.42638L1.22237 7.22488C1.25884 5.32736 1.60596 3.77332 2.62984 2.72684C4.99189 0.512089 11.6551 1.00725 13.3528 2.60286C15.2419 4.27759 14.7995 8.73463 14.7081 9.65504C14.6991 9.74582 14.6935 9.8022 14.6939 9.81811C14.3098 13.0185 12.233 13.5199 11.4856 13.7004L11.4856 13.7004L11.4856 13.7004C11.4029 13.7204 11.3365 13.7364 11.2905 13.7517C11.0928 13.8173 9.25876 14.2892 6.95577 14.1353ZM7.90676 3.14346C7.626 3.14346 7.626 3.58102 7.90676 3.58466C10.085 3.60144 11.879 5.11974 11.8987 7.90477C11.8987 8.19866 12.329 8.19501 12.3253 7.90112H12.3246C12.3013 4.90024 10.3425 3.16024 7.90676 3.14346ZM11.1986 7.45324C11.1949 7.74713 10.7654 7.73327 10.772 7.44303C10.8055 5.994 9.92966 4.85928 8.26695 4.73312C7.98692 4.7127 8.01609 4.2715 8.29685 4.29192C10.2141 4.43558 11.2343 5.79856 11.1986 7.45324ZM10.3125 9.32526C9.95228 9.11669 9.58547 9.2465 9.43378 9.45142L9.11655 9.86199C8.95539 10.0706 8.65421 10.0428 8.65421 10.0428C6.45623 9.46163 5.86845 7.16156 5.86845 7.16156C5.86845 7.16156 5.84147 6.85017 6.04274 6.68317L6.43946 6.355C6.63781 6.19748 6.76325 5.81827 6.56124 5.44562C6.15434 4.71045 5.84818 4.33847 5.64309 4.08929C5.57619 4.00799 5.52004 3.93977 5.47465 3.87627C5.28067 3.63342 4.98897 3.57873 4.6856 3.74281H4.67903C4.04823 4.11182 3.35762 4.80242 3.57859 5.51344C3.64396 5.64344 3.71883 5.82275 3.80945 6.03977C4.24144 7.07433 5.03131 8.96599 6.85659 10.4585C7.89432 11.3125 9.53661 12.1876 10.2338 12.3896L10.2403 12.3998C10.9273 12.6288 11.5953 11.9112 11.9519 11.2614V11.2563C12.1102 10.942 12.0576 10.6445 11.8265 10.4498C11.4166 10.0501 10.7982 9.60894 10.3125 9.32526ZM9.67442 7.07836C9.63796 6.3265 9.29813 5.96041 8.59732 5.91957C8.31364 5.9028 8.33989 5.4616 8.62065 5.47837C9.54242 5.52942 10.0544 6.07636 10.101 7.05794C10.1142 7.35183 9.68754 7.37225 9.67442 7.07836Z"/>
</svg>
