<svg width="25" height="22" viewBox="0 0 25 22" fill="none" xmlns="http://www.w3.org/2000/svg">
<path d="M14.6947 3.41087C-1.41628 10.0295 0.251451 9.32295 0.0941172 9.62343C-0.0946829 9.98887 0.00758381 10.4355 0.337984 10.671C0.471717 10.7604 1.81692 11.2314 3.32732 11.7186C4.84559 12.2059 6.11999 12.6444 6.16719 12.6932C6.21439 12.7419 6.75719 14.4229 7.37079 16.4369C8.34626 19.6285 8.51932 20.1157 8.72386 20.3188C8.97559 20.5543 9.27452 20.5949 9.54986 20.4325C9.64426 20.3756 10.4703 19.6122 11.3828 18.7352L13.0505 17.1353L15.4263 18.9382C19.5877 22.081 19.4697 21.9998 19.808 21.9998C20.1463 21.9998 20.4531 21.7887 20.5789 21.4557C20.7205 21.0821 25 1.98158 25 1.72983C25 0.787796 24.2369 -0.00806046 23.348 6.10352e-05C23.0727 6.10352e-05 21.224 0.730949 14.6947 3.41087ZM22.7187 2.13588C22.6085 2.23333 19.7293 4.88889 16.3073 8.03171C12.8932 11.1664 10.014 13.8139 9.91959 13.9113C9.77012 14.0575 9.69932 14.3904 9.42399 16.0309C9.24306 17.1029 9.07786 18.0449 9.04639 18.1261C8.98346 18.2804 7.41012 12.5876 7.46519 12.4252C7.49665 12.3521 22.7816 1.9491 22.876 1.94098C22.8917 1.94098 22.8209 2.03031 22.7187 2.13588Z" fill="url(#paint0_linear_254_227)"/>
<defs>
<linearGradient id="paint0_linear_254_227" x1="3.64583" y1="22" x2="25.1246" y2="0.122352" gradientUnits="userSpaceOnUse">
<stop stop-color="#13B6EA"/>
<stop offset="1" stop-color="#60D7FF"/>
</linearGradient>
</defs>
</svg>
