<svg width="25" height="26" viewBox="0 0 25 26" fill="none" xmlns="http://www.w3.org/2000/svg">
<path d="M8.88965 0.0340214C8.22888 0.0911179 7.28202 0.281439 6.6485 0.478106C5.14986 0.941221 4.03951 1.58832 2.85422 2.68584C1.66894 3.7897 0.946866 4.8555 0.449591 6.2512C0.00681199 7.4756 0 7.57076 0 11.06C0 13.8831 0.013624 14.2891 0.122616 14.7522C0.756131 17.4231 2.53406 19.7006 4.97275 20.9377L5.51771 21.2168L5.53133 23.4943C5.55177 25.7338 5.55177 25.7782 5.69482 25.8861C6.02861 26.1462 6.06948 26.1208 8.31063 24.0399L10.4223 22.0733L13.5899 22.0479C16.4986 22.0225 16.8052 22.0098 17.3365 21.8956C20.8311 21.1026 23.4809 18.8632 24.5777 15.7863C24.9932 14.619 25 14.5112 25 11.06C25 8.23689 24.9864 7.83087 24.8774 7.34872C24.4755 5.59142 23.6308 4.10056 22.3161 2.83175C20.6676 1.2267 18.6512 0.300472 16.3011 0.0593967C15.7016 -0.00404358 9.51635 -0.0230751 8.88965 0.0340214ZM15.0749 3.70723C18.0586 4.2782 20.2657 6.7841 20.2657 9.60086C20.2657 10.1147 20.1839 10.8189 20.0886 11.1107C20.0341 11.282 19.6935 11.4216 19.4891 11.3455C19.2098 11.2503 19.1553 11.079 19.2507 10.5842C19.2984 10.3241 19.3188 9.86097 19.2984 9.4042C19.2371 8.1227 18.7534 7.05055 17.827 6.13066C16.7371 5.05852 15.5245 4.55099 13.842 4.45583C13.2425 4.41776 13.0654 4.38605 12.9632 4.29088C12.7997 4.13863 12.8065 3.98003 12.9837 3.77067C13.1199 3.61207 13.1471 3.60573 13.8351 3.60573C14.2302 3.60573 14.7888 3.65014 15.0749 3.70723ZM8.23569 5.16002C8.50817 5.28056 10.7289 7.36141 10.8856 7.64689C11.2738 8.34474 10.9673 9.09968 10.1567 9.44226C9.46867 9.72774 9.10082 10.2416 9.18937 10.7935C9.40055 12.0497 11.1921 13.9339 12.6703 14.4477C13.5082 14.7395 14.2098 14.4985 14.6049 13.7689C14.8229 13.3692 15.0954 13.1028 15.3815 13.0013C15.6471 12.9061 16.2057 12.9125 16.4714 13.0203C16.7098 13.1091 18.9646 15.2217 19.1826 15.5516C19.3529 15.818 19.3529 16.3636 19.1826 16.7062C19.0191 17.0361 17.4728 18.4508 17.064 18.6411C16.2466 19.0345 14.7684 18.8124 13.1608 18.0638C12.6226 17.8101 11.1785 16.9219 10.5586 16.4524C7.76567 14.3652 5.43597 11.3772 4.86376 9.15043C4.6594 8.33205 4.69346 7.51367 4.96594 7.05055C5.2248 6.60647 6.80518 5.16002 7.12534 5.0712C7.41826 4.98873 7.93597 5.02679 8.23569 5.16002ZM14.9114 5.4455C15.7357 5.64217 16.3283 5.96572 17.0027 6.58743C17.9223 7.43754 18.3583 8.3828 18.3651 9.54376C18.3719 9.87366 18.3379 10.1845 18.2902 10.2606C18.1744 10.47 17.9155 10.5398 17.6771 10.4256C17.4319 10.3114 17.3842 10.1655 17.4387 9.74043C17.4932 9.30903 17.3297 8.57947 17.064 8.07194C16.8052 7.57711 16.1921 6.96808 15.6676 6.68259C15.0545 6.34002 14.4823 6.20045 13.7398 6.20045C13.0177 6.1941 12.8406 6.11163 12.8406 5.7627C12.8406 5.42013 13.0518 5.31862 13.7602 5.31862C14.1621 5.31862 14.5777 5.36303 14.9114 5.4455ZM14.9728 7.34238C15.8311 7.72936 16.4373 8.54775 16.5054 9.37882C16.5327 9.75312 16.5191 9.8229 16.3896 9.94344C16.0695 10.2416 15.6812 10.0005 15.6131 9.46129C15.5586 9.0299 15.3747 8.7 15 8.3828C14.6935 8.11635 14.1757 7.91969 13.7875 7.91969C13.6649 7.91969 13.549 7.86259 13.4605 7.75474C13.2834 7.53904 13.2834 7.46926 13.4673 7.25356C13.6035 7.08861 13.6308 7.08227 14.0804 7.10765C14.4142 7.13302 14.6662 7.19646 14.9728 7.34238Z" fill="url(#paint0_linear_254_229)"/>
<defs>
<linearGradient id="paint0_linear_254_229" x1="4.34783" y1="22.88" x2="19.2397" y2="2.48547" gradientUnits="userSpaceOnUse">
<stop stop-color="#985FF6"/>
<stop offset="1" stop-color="#AC7AFF"/>
</linearGradient>
</defs>
</svg>
