<svg width="68" height="68" viewBox="0 0 68 68" fill="none" xmlns="http://www.w3.org/2000/svg">
<g filter="url(#filter0_d_69_221)">
<rect x="2" y="2" width="60" height="60" rx="10" fill="#8B8B8B"/>
<rect x="3" y="3" width="58" height="58" rx="9" stroke="#B3DC72" stroke-width="2"/>
</g>
<path d="M19.5113 22.1057H20.3706C21.2299 19.313 22.9485 16.9499 25.0967 15.0165C27.4598 13.0831 30.2525 12.009 33.2601 12.009C36.4824 12.009 39.2752 13.0831 41.6382 15.0165C43.7865 16.9499 45.5051 19.313 46.3644 22.1057H46.5792C47.0088 22.1057 47.2237 22.3205 47.4385 22.3205C48.5126 22.5354 49.3719 22.965 50.0164 23.6095C50.6609 24.2539 51.0905 25.1132 51.0905 26.1874C51.0905 26.4022 51.0905 26.617 51.0905 26.8318L47.0088 47.2402C46.794 48.5291 46.3644 49.6032 45.5051 50.4625C44.8606 51.107 43.7865 51.5366 42.7123 51.5366H23.593C22.304 51.5366 21.4447 51.107 20.5854 50.4625C19.7261 49.6032 19.2965 48.5291 19.0817 47.2402L15 26.8318C15 26.617 15 26.4022 15 26.1874C15 25.1132 15.4296 24.2539 16.0741 23.6095C16.7186 22.965 17.7927 22.5354 18.652 22.3205C18.8668 22.3205 19.2965 22.1057 19.5113 22.1057ZM22.5189 22.1057H44.2161C43.3568 19.9575 42.0679 18.024 40.3493 16.5203C38.4159 15.0165 36.0528 13.9424 33.2601 13.9424C30.6822 13.9424 28.3191 15.0165 26.3857 16.5203C24.6671 18.024 23.1633 19.9575 22.5189 22.1057ZM41.8531 32.8469V42.0844H40.1345V32.8469H41.8531ZM36.6973 32.8469V42.0844H34.9787V32.8469H36.6973ZM31.9711 32.8469V42.0844H30.2525V32.8469H31.9711ZM26.8153 32.8469V42.0844H25.0967V32.8469H26.8153ZM46.5792 24.2539H19.7261H19.5113C19.2965 24.2539 19.0817 24.2539 19.0817 24.2539C18.4372 24.4688 18.0075 24.6836 17.5779 25.1132C17.1482 25.3281 16.9334 25.7577 16.9334 26.1874C16.9334 26.4022 16.9334 26.4022 16.9334 26.4022L21.0151 47.0253C21.2299 47.6698 21.4447 48.5291 22.0892 48.9588C22.304 49.3884 22.9485 49.6032 23.593 49.6032H42.7123C43.142 49.6032 43.7865 49.3884 44.2161 48.9588C44.6458 48.5291 44.8606 47.6698 45.0754 47.0253L49.1571 26.4022C49.1571 26.4022 49.1571 26.4022 49.1571 26.1874C49.1571 25.7577 48.9423 25.3281 48.5126 25.1132C48.2978 24.6836 47.6533 24.4688 47.2237 24.2539C47.0088 24.2539 46.794 24.2539 46.5792 24.2539Z" fill="#B3DC72"/>
<defs>
<filter id="filter0_d_69_221" x="0" y="0" width="68" height="68" filterUnits="userSpaceOnUse" color-interpolation-filters="sRGB">
<feFlood flood-opacity="0" result="BackgroundImageFix"/>
<feColorMatrix in="SourceAlpha" type="matrix" values="0 0 0 0 0 0 0 0 0 0 0 0 0 0 0 0 0 0 127 0" result="hardAlpha"/>
<feOffset dx="2" dy="2"/>
<feGaussianBlur stdDeviation="2"/>
<feComposite in2="hardAlpha" operator="out"/>
<feColorMatrix type="matrix" values="0 0 0 0 0 0 0 0 0 0 0 0 0 0 0 0 0 0 0.25 0"/>
<feBlend mode="normal" in2="BackgroundImageFix" result="effect1_dropShadow_69_221"/>
<feBlend mode="normal" in="SourceGraphic" in2="effect1_dropShadow_69_221" result="shape"/>
</filter>
</defs>
</svg>
