<svg width="68" height="68" viewBox="0 0 68 68" fill="none" xmlns="http://www.w3.org/2000/svg">
<g filter="url(#filter0_d_69_225)">
<rect x="2" y="2" width="60" height="60" rx="10" fill="#8B8B8B"/>
<rect x="3" y="3" width="58" height="58" rx="9" stroke="#B3DC72" stroke-width="2"/>
</g>
<path d="M40.2422 16.3865H55.8152V18.3064H40.2422V16.3865Z" fill="#B3DC72"/>
<path d="M8.02954 16.3865H17.416V7H19.336V16.3865H28.7225V18.3064H19.336V27.6929H17.416V18.3064H8.02954V16.3865Z" fill="#B3DC72"/>
<path d="M40.6689 46.2525H54.7486V48.3858H40.6689V46.2525ZM47.7087 50.0925C49.202 50.0925 50.482 51.3724 50.482 52.6524C50.482 54.1457 49.202 55.4257 47.7087 55.4257C46.4288 55.4257 45.1488 54.1457 45.1488 52.6524C45.1488 51.3724 46.4288 50.0925 47.7087 50.0925ZM47.7087 39.426C49.202 39.426 50.482 40.4927 50.482 41.986C50.482 43.4793 49.202 44.5459 47.7087 44.5459C46.4288 44.5459 45.1488 43.4793 45.1488 41.986C45.1488 40.4927 46.4288 39.426 47.7087 39.426Z" fill="#B3DC72"/>
<path d="M11.6561 40.2793L18.2693 46.8925L24.8825 40.2793L26.3758 41.7726L19.7626 48.3858L26.3758 54.7857L24.8825 56.279L18.2693 49.6658L11.6561 56.279L10.3762 54.7857L16.9894 48.3858L10.3762 41.7726L11.6561 40.2793Z" fill="#B3DC72"/>
<line x1="33" y1="4" x2="33" y2="61" stroke="#B3DC72" stroke-width="2"/>
<line x1="3.5" y1="31.5" x2="60.5" y2="31.5" stroke="#B3DC72" stroke-width="2"/>
<defs>
<filter id="filter0_d_69_225" x="0" y="0" width="68" height="68" filterUnits="userSpaceOnUse" color-interpolation-filters="sRGB">
<feFlood flood-opacity="0" result="BackgroundImageFix"/>
<feColorMatrix in="SourceAlpha" type="matrix" values="0 0 0 0 0 0 0 0 0 0 0 0 0 0 0 0 0 0 127 0" result="hardAlpha"/>
<feOffset dx="2" dy="2"/>
<feGaussianBlur stdDeviation="2"/>
<feComposite in2="hardAlpha" operator="out"/>
<feColorMatrix type="matrix" values="0 0 0 0 0 0 0 0 0 0 0 0 0 0 0 0 0 0 0.25 0"/>
<feBlend mode="normal" in2="BackgroundImageFix" result="effect1_dropShadow_69_225"/>
<feBlend mode="normal" in="SourceGraphic" in2="effect1_dropShadow_69_225" result="shape"/>
</filter>
</defs>
</svg>
