<svg width="68" height="68" viewBox="0 0 68 68" fill="none" xmlns="http://www.w3.org/2000/svg">
<g filter="url(#filter0_d_69_217)">
<rect x="2" y="2" width="60" height="60" rx="10" fill="#8B8B8B"/>
<rect x="3" y="3" width="58" height="58" rx="9" stroke="#B3DC72" stroke-width="2"/>
</g>
<path d="M32.5335 32.2486C37.4552 32.2486 41.7617 33.7866 44.9915 36.4012C48.2214 39.0159 50.2208 42.5533 50.2208 46.5522C50.2208 46.706 50.2208 46.706 50.2208 47.0136C50.2208 47.1674 50.2208 47.1674 50.2208 47.3212L50.067 48.244H15.1538L15 47.3212C15 47.1674 15 47.1674 15 47.0136C15 46.706 15 46.706 15 46.5522C15 42.5533 16.9994 39.0159 20.2293 36.4012C23.4591 33.7866 27.7656 32.2486 32.5335 32.2486ZM32.3797 15.0227C34.5329 15.0227 36.2248 15.7917 37.609 17.1759C38.9932 18.5601 39.7622 20.4058 39.7622 22.4052C39.7622 24.4046 38.9932 26.2503 37.609 27.6345C36.2248 28.8649 34.5329 29.7877 32.3797 29.7877C30.3803 29.7877 28.5346 28.8649 27.3042 27.6345C25.92 26.2503 25.151 24.4046 25.151 22.4052C25.151 20.4058 25.92 18.5601 27.3042 17.1759C28.5346 15.7917 30.3803 15.0227 32.3797 15.0227ZM36.2248 18.5601C35.3019 17.6373 33.9177 17.0221 32.3797 17.0221C30.9955 17.0221 29.6112 17.6373 28.6884 18.5601C27.6118 19.483 27.1504 20.8672 27.1504 22.4052C27.1504 23.7894 27.6118 25.1736 28.6884 26.0965C29.6112 27.1731 30.9955 27.7883 32.3797 27.7883C33.9177 27.7883 35.3019 27.1731 36.2248 26.0965C37.1476 25.1736 37.7628 23.7894 37.7628 22.4052C37.7628 20.8672 37.1476 19.483 36.2248 18.5601ZM43.7611 37.9393C40.8388 35.6322 36.9938 34.248 32.5335 34.248C28.227 34.248 24.382 35.6322 21.4597 37.9393C18.8451 40.0925 17.1532 43.0148 16.9994 46.2446H48.2214C48.0676 43.0148 46.3757 40.0925 43.7611 37.9393Z" fill="#B3DC72"/>
<defs>
<filter id="filter0_d_69_217" x="0" y="0" width="68" height="68" filterUnits="userSpaceOnUse" color-interpolation-filters="sRGB">
<feFlood flood-opacity="0" result="BackgroundImageFix"/>
<feColorMatrix in="SourceAlpha" type="matrix" values="0 0 0 0 0 0 0 0 0 0 0 0 0 0 0 0 0 0 127 0" result="hardAlpha"/>
<feOffset dx="2" dy="2"/>
<feGaussianBlur stdDeviation="2"/>
<feComposite in2="hardAlpha" operator="out"/>
<feColorMatrix type="matrix" values="0 0 0 0 0 0 0 0 0 0 0 0 0 0 0 0 0 0 0.25 0"/>
<feBlend mode="normal" in2="BackgroundImageFix" result="effect1_dropShadow_69_217"/>
<feBlend mode="normal" in="SourceGraphic" in2="effect1_dropShadow_69_217" result="shape"/>
</filter>
</defs>
</svg>
