<svg width="68" height="68" viewBox="0 0 68 68" fill="none" xmlns="http://www.w3.org/2000/svg">
<g filter="url(#filter0_d_69_204)">
<rect x="2" y="2" width="60" height="60" rx="10" fill="#8F8F8F"/>
<rect x="3" y="3" width="58" height="58" rx="9" stroke="#B3DC72" stroke-width="2"/>
</g>
<path d="M22.6609 39.549C25.5801 43.1169 29.148 46.0361 32.3916 48.3066C35.6352 50.2528 38.8787 51.5502 41.1492 51.5502C43.0954 51.5502 44.7172 50.5771 46.339 49.6041C47.9608 48.3066 48.9338 46.6848 49.2582 45.063C49.5825 43.7656 49.5825 42.1438 49.2582 41.1708C48.9338 40.1977 48.2851 39.549 47.312 39.549L40.8249 37.6028C40.8249 37.6028 40.5005 37.9272 40.1762 38.5759C39.5275 39.2246 39.2031 39.8733 38.8787 40.8464C38.8787 41.4951 38.8787 42.4682 38.8787 43.1169V44.4143L37.9057 44.09C35.6352 43.1169 33.689 42.1438 31.7429 40.8464C30.1211 39.549 28.4993 37.9272 26.8775 36.3054C25.5801 34.3592 24.2827 32.7375 23.3096 30.467C22.3365 28.5208 21.6878 26.2503 21.3634 23.9798V22.6824L22.6609 23.3311C23.3096 23.6554 23.9583 23.6554 24.9314 23.6554C25.5801 23.3311 26.5532 23.3311 27.2019 23.0067C27.8506 22.6824 28.1749 22.358 28.1749 22.358L27.8506 15.5465C27.8506 14.5734 27.2019 13.9247 26.5532 13.276C25.5801 12.6273 23.9583 12.6273 22.6609 12.6273C21.0391 12.6273 19.0929 13.276 17.7955 14.8978C16.1737 15.8709 15.2006 17.4926 14.5519 19.4388C14.2276 21.7093 14.8763 24.9529 16.1737 28.5208C17.7955 32.4131 20.066 36.3054 22.6609 39.549ZM36.9326 14.5734C40.5005 14.8978 43.7441 15.8709 46.339 18.1414C48.6095 20.0875 49.9069 23.0067 50.5556 26.5747L48.6095 26.899C47.9608 23.6554 46.6633 21.3849 45.0415 19.4388C42.771 17.817 40.1762 16.8439 36.9326 16.5196V14.5734ZM36.2839 18.7901C38.8787 18.7901 41.1492 19.7631 43.0954 21.3849C44.7172 22.6824 45.6903 24.9529 46.0146 27.5477L44.0685 27.8721C43.7441 25.6016 43.0954 23.9798 41.4736 22.6824C40.1762 21.3849 38.23 20.7362 35.9595 20.7362L36.2839 18.7901ZM31.7429 49.6041C28.1749 47.3335 24.2827 44.09 21.6878 40.522C18.7686 37.2785 16.1737 33.0618 14.5519 29.1695C13.2545 25.2772 12.6058 21.7093 13.2545 19.1144C13.5789 16.8439 14.8763 14.8978 16.8224 13.6004C18.4442 11.9786 20.7147 11.0055 22.6609 11.0055C23.9583 11.0055 25.9044 11.3299 27.2019 11.9786C28.4993 12.6273 29.148 13.9247 29.4724 15.5465L29.7967 22.0337C29.7967 22.358 29.7967 22.6824 29.7967 22.6824C29.4724 23.3311 28.8237 23.9798 27.8506 24.3042C26.8775 24.6285 25.9044 24.9529 24.9314 24.9529C24.2827 25.2772 23.6339 25.2772 23.3096 24.9529C23.6339 26.899 23.9583 28.5208 24.9314 29.8182C25.5801 31.7644 26.8775 33.7105 28.1749 35.3323C29.4724 36.9541 31.0942 38.2515 32.716 39.549C34.0134 40.522 35.6352 41.4951 37.257 42.1438C37.257 41.4951 37.257 40.8464 37.5813 40.522C37.9057 39.2246 38.23 38.2515 38.8787 37.6028C39.2031 36.6297 40.1762 36.3054 40.8249 35.981C40.8249 35.981 41.1492 35.981 41.4736 35.981L47.9608 37.9272C49.5825 38.2515 50.2313 39.2246 50.88 40.522C51.2043 42.1438 51.2043 43.7656 50.88 45.3874C50.5556 47.3335 49.2582 49.2797 47.312 50.5771C45.6903 52.1989 43.4198 53.172 41.1492 53.172C38.5544 53.172 34.9865 51.8746 31.7429 49.6041Z" fill="#B3DC72"/>
<defs>
<filter id="filter0_d_69_204" x="0" y="0" width="68" height="68" filterUnits="userSpaceOnUse" color-interpolation-filters="sRGB">
<feFlood flood-opacity="0" result="BackgroundImageFix"/>
<feColorMatrix in="SourceAlpha" type="matrix" values="0 0 0 0 0 0 0 0 0 0 0 0 0 0 0 0 0 0 127 0" result="hardAlpha"/>
<feOffset dx="2" dy="2"/>
<feGaussianBlur stdDeviation="2"/>
<feComposite in2="hardAlpha" operator="out"/>
<feColorMatrix type="matrix" values="0 0 0 0 0 0 0 0 0 0 0 0 0 0 0 0 0 0 0.25 0"/>
<feBlend mode="normal" in2="BackgroundImageFix" result="effect1_dropShadow_69_204"/>
<feBlend mode="normal" in="SourceGraphic" in2="effect1_dropShadow_69_204" result="shape"/>
</filter>
</defs>
</svg>
