<svg width="60" height="60" viewBox="0 0 60 60" fill="none" xmlns="http://www.w3.org/2000/svg">
<path d="M11.0066 0H48.9934C52.0414 0 54.8072 1.24177 56.7827 3.21731C58.7582 5.24929 60 7.95861 60 11.0066V48.9934C60 52.0414 58.7582 54.8072 56.7827 56.7827C54.8072 58.7582 52.0414 60 48.9934 60H11.0066C7.95861 60 5.24929 58.7582 3.21731 56.7827C1.24177 54.8072 0 52.0414 0 48.9934V11.0066C0 7.95861 1.24177 5.24929 3.21731 3.21731C5.24929 1.24177 7.95861 0 11.0066 0ZM48.9934 1.97554H11.0066C8.52305 1.97554 6.26529 2.99153 4.62841 4.62841C2.99153 6.26529 1.97554 8.52305 1.97554 11.0066V48.9934C1.97554 51.477 2.99153 53.7347 4.62841 55.3716C6.26529 57.0085 8.52305 58.0245 11.0066 58.0245H48.9934C51.477 58.0245 53.7347 57.0085 55.3716 55.3716C57.0085 53.7347 58.0245 51.477 58.0245 48.9934V11.0066C58.0245 8.52305 57.0085 6.26529 55.3716 4.62841C53.7347 2.99153 51.477 1.97554 48.9934 1.97554Z"/>
<path fill-rule="evenodd" clip-rule="evenodd" d="M28.172 49H18.6443C13.8786 49 10 45.1215 10 40.3517V18.6502C10 13.8805 13.8786 10 18.6443 10H28.1506C32.9203 10 36.8008 13.8805 36.8008 18.6502V20.4676C36.8008 21.2749 36.1456 21.9301 35.3383 21.9301C34.531 21.9301 33.8758 21.2749 33.8758 20.4676V18.6502C33.8758 15.4912 31.3076 12.925 28.1506 12.925H18.6443C15.4912 12.925 12.925 15.4912 12.925 18.6502V40.3517C12.925 43.5088 15.4912 46.075 18.6443 46.075H28.172C31.3154 46.075 33.8758 43.5166 33.8758 40.3732V38.5344C33.8758 37.7271 34.531 37.0719 35.3383 37.0719C36.1456 37.0719 36.8008 37.7271 36.8008 38.5344V40.3732C36.8008 45.1312 32.9281 49 28.172 49"/>
<path fill-rule="evenodd" clip-rule="evenodd" d="M42.8752 36.6487C42.5008 36.6487 42.1245 36.5063 41.8398 36.2177C41.2704 35.6444 41.2723 34.7201 41.8437 34.1507L46.512 29.5L41.8437 24.8512C41.2723 24.2818 41.2684 23.3575 41.8398 22.7842C42.4092 22.2109 43.3335 22.2109 43.9068 22.7803L49.6164 28.4645C49.8933 28.7375 50.0473 29.1119 50.0473 29.5C50.0473 29.888 49.8933 30.2624 49.6164 30.5354L43.9068 36.2216C43.6221 36.5063 43.2477 36.6487 42.8752 36.6487"/>
</g>
</svg>
