<svg width="60" height="60" viewBox="0 0 60 60" fill="none" xmlns="http://www.w3.org/2000/svg">
<path d="M11.0066 0H48.9934C52.0414 0 54.8072 1.24177 56.7827 3.21731C58.7582 5.24929 60 7.95861 60 11.0066V48.9934C60 52.0414 58.7582 54.8072 56.7827 56.7827C54.8072 58.7582 52.0414 60 48.9934 60H11.0066C7.95861 60 5.24929 58.7582 3.21731 56.7827C1.24177 54.8072 0 52.0414 0 48.9934V11.0066C0 7.95861 1.24177 5.24929 3.21731 3.21731C5.24929 1.24177 7.95861 0 11.0066 0ZM48.9934 1.97554H11.0066C8.52305 1.97554 6.26529 2.99153 4.62841 4.62841C2.99153 6.26529 1.97554 8.52305 1.97554 11.0066V48.9934C1.97554 51.477 2.99153 53.7347 4.62841 55.3716C6.26529 57.0085 8.52305 58.0245 11.0066 58.0245H48.9934C51.477 58.0245 53.7347 57.0085 55.3716 55.3716C57.0085 53.7347 58.0245 51.477 58.0245 48.9934V11.0066C58.0245 8.52305 57.0085 6.26529 55.3716 4.62841C53.7347 2.99153 51.477 1.97554 48.9934 1.97554Z" fill="#B3DC72"/>
<path fill-rule="evenodd" clip-rule="evenodd" d="M28.2523 48H19.2068C14.6822 48 11 44.3177 11 39.7895V19.1863C11 14.658 14.6822 10.9739 19.2068 10.9739H28.232C32.7603 10.9739 36.4444 14.658 36.4444 19.1863V20.9117C36.4444 21.6781 35.8223 22.3002 35.0559 22.3002C34.2894 22.3002 33.6674 21.6781 33.6674 20.9117V19.1863C33.6674 16.1871 31.2292 13.7508 28.232 13.7508H19.2068C16.2133 13.7508 13.777 16.1871 13.777 19.1863V39.7895C13.777 42.7867 16.2133 45.223 19.2068 45.223H28.2523C31.2366 45.223 33.6674 42.7941 33.6674 39.8098V38.064C33.6674 37.2976 34.2894 36.6756 35.0559 36.6756C35.8223 36.6756 36.4444 37.2976 36.4444 38.064V39.8098C36.4444 44.327 32.7677 48 28.2523 48" fill="#B3DC72"/>
<path fill-rule="evenodd" clip-rule="evenodd" d="M23.9514 28.0984H49.0197V30.8754H23.9514V28.0984Z" fill="white"/>

<path fill-rule="evenodd" clip-rule="evenodd" d="M47.6314 30.8754H25.3399C24.5734 30.8754 23.9514 30.2534 23.9514 29.4869C23.9514 28.7205 24.5734 28.0984 25.3399 28.0984H47.6314C48.3979 28.0984 49.0199 28.7205 49.0199 29.4869C49.0199 30.2534 48.3979 30.8754 47.6314 30.8754" fill="#B3DC72"/>


<path fill-rule="evenodd" clip-rule="evenodd" d="M40.8233 22.7023H49.0197V36.2738H40.8233V22.7023Z" fill="white"/>


<path fill-rule="evenodd" clip-rule="evenodd" d="M42.2113 36.2738C41.8559 36.2738 41.4986 36.1387 41.2283 35.8647C40.6877 35.3204 40.6896 34.4429 41.232 33.9023L45.664 29.4869L41.232 25.0734C40.6896 24.5328 40.6858 23.6553 41.2283 23.111C41.7689 22.5667 42.6464 22.5667 43.1907 23.1073L48.6113 28.5039C48.8742 28.763 49.0204 29.1185 49.0204 29.4869C49.0204 29.8553 48.8742 30.2108 48.6113 30.47L43.1907 35.8684C42.9204 36.1387 42.5649 36.2738 42.2113 36.2738" fill="#B3DC72"/>

</svg>
