<svg width="55" height="59" viewBox="0 0 55 59" fill="none" xmlns="http://www.w3.org/2000/svg">
<path fill-rule="evenodd" clip-rule="evenodd" d="M24.8498 48.9597C18.6042 48.9597 13.6873 43.8496 13.8202 37.6638C13.8202 36.8569 13.8202 35.9156 14.086 35.2432C13.0229 35.5121 12.0927 35.6466 11.0296 35.6466C4.91681 35.5121 0 30.5365 0 24.2162C0 18.0303 5.0497 13.0547 11.2954 13.0547C12.2256 13.0547 13.2887 13.1892 14.2189 13.5926C14.086 12.7857 14.086 11.9789 14.086 11.172C14.086 4.98613 19.1357 0.0105209 25.2485 0.0105209C28.172 0.0105209 31.0955 1.2208 33.0888 3.37242C35.215 5.52403 36.411 8.34802 36.2781 11.3065C36.2781 12.1133 36.2781 12.9202 36.0123 13.7271C37.0754 13.4581 38.1385 13.3236 39.2016 13.3236C45.3144 13.3236 50.2312 18.4337 50.2312 24.6196C50.0983 30.8055 45.0486 35.7811 38.9358 35.7811C38.4043 35.7811 37.8727 35.7811 37.3412 35.6466C39.2016 37.9327 40.3976 40.4878 40.9291 42.9083C41.062 42.6394 41.1949 42.3704 41.4607 42.1015C42.258 40.8912 43.3211 39.9498 44.65 39.4119C45.9788 38.874 47.4406 38.7396 48.9024 39.0085C50.2312 39.2775 51.5601 39.9498 52.4903 41.0257C53.5534 42.1015 54.2178 43.3117 54.4836 44.791C54.7494 46.1357 54.6165 47.615 54.0849 48.9597C53.4205 50.3045 52.4903 51.3803 51.2943 52.1871C50.0983 52.994 48.7695 53.3974 47.3077 53.3974C45.4473 53.3974 43.5869 52.5906 42.258 51.2458C41.8594 50.8424 41.4607 50.439 41.1949 49.9011C40.7963 52.8595 39.9989 55.6835 38.9358 58.373L37.4741 57.8351C38.9358 53.9353 39.9989 49.9011 39.7332 45.8668C39.4674 42.6394 38.4043 39.5464 36.0123 36.588C36.0123 36.9914 36.0123 37.3948 36.0123 37.7982C36.0123 43.9841 30.9626 48.9597 24.8498 48.9597ZM24.8498 38.7396C21.5277 38.7396 18.3384 37.5293 15.9464 35.3777C15.6806 36.05 15.5478 36.8569 15.5478 37.6638C15.5478 40.0843 16.478 42.5049 18.2055 44.2531C19.933 46.1357 22.325 47.0771 24.8498 47.0771C27.2418 47.0771 29.6338 46.1357 31.4942 44.3876C33.2217 42.6394 34.1519 40.2188 34.2848 37.7982C34.2848 36.9914 34.1519 36.1845 34.019 35.5121C31.4942 37.5293 28.3049 38.7396 24.8498 38.7396ZM13.9531 33.3605C11.9598 30.8055 10.8967 27.7125 10.8967 24.3506C10.8967 20.9888 12.0927 17.8958 14.086 15.4752C13.1558 15.0718 12.2256 14.9373 11.1625 14.9373C8.77053 14.9373 6.37857 15.8787 4.65104 17.6269C2.79062 19.375 1.86042 21.7956 1.86042 24.3506C1.72753 29.4607 5.97991 33.764 11.0296 33.764C11.9598 33.764 13.0229 33.6295 13.9531 33.3605ZM16.0793 13.4581C18.6042 11.3065 21.7934 10.0962 25.2485 10.0962C28.5707 10.0962 31.76 11.441 34.1519 13.4581C34.4177 12.7857 34.5506 12.1133 34.5506 11.3065C34.5506 10.0962 34.2848 8.88593 33.8861 7.67564C33.4875 6.46536 32.823 5.38955 31.8928 4.44822C31.0955 3.64137 30.0324 2.83451 28.8364 2.29661C27.7733 1.89318 26.5774 1.62423 25.2485 1.62423C24.0525 1.62423 22.8565 1.75871 21.6606 2.29661C20.4646 2.83451 19.4015 3.50689 18.6042 4.44822C17.6739 5.25508 17.0095 6.33089 16.478 7.54117C16.0793 8.75145 15.8135 9.96173 15.8135 11.172C15.8135 11.9789 15.9464 12.6512 16.0793 13.4581ZM36.1452 15.6097C38.1385 18.0303 39.3345 21.1232 39.2016 24.4851C39.2016 27.9815 38.0056 31.0744 36.0123 33.495C36.9425 33.764 38.0056 33.8984 38.9358 33.8984C44.1184 34.0329 48.3708 29.7297 48.3708 24.6196C48.3708 19.375 44.2513 15.2063 39.2016 15.0718C38.1385 15.0718 37.2083 15.2063 36.1452 15.6097Z" fill="#B3DC72"/>
</svg>
